<?xml version="1.0" encoding="UTF-8"?><svg id="Layer_2" xmlns="http://www.w3.org/2000/svg" xmlns:xlink="http://www.w3.org/1999/xlink" viewBox="0 0 717 985.5"><defs><style>.cls-1{fill:#111;}.cls-2{fill:url(#linear-gradient-3);}.cls-2,.cls-3,.cls-4,.cls-5,.cls-6{opacity:.3;}.cls-7{filter:url(#drop-shadow-2);}.cls-8{stroke:url(#linear-gradient-13);}.cls-8,.cls-9,.cls-10,.cls-11,.cls-12,.cls-13,.cls-14,.cls-15,.cls-16,.cls-17,.cls-18,.cls-19,.cls-20,.cls-21,.cls-22,.cls-23,.cls-24{fill:none;}.cls-8,.cls-10,.cls-11,.cls-12,.cls-13,.cls-14,.cls-15,.cls-16,.cls-17,.cls-18,.cls-19,.cls-20,.cls-21,.cls-25,.cls-26,.cls-22,.cls-23,.cls-24{stroke-miterlimit:10;}.cls-8,.cls-10,.cls-11,.cls-12,.cls-14,.cls-16,.cls-19,.cls-20,.cls-21,.cls-25,.cls-26,.cls-22,.cls-24{stroke-width:7px;}.cls-27{fill:#1e1e1e;}.cls-3{fill:url(#linear-gradient-5);}.cls-10{stroke:url(#linear-gradient-22);}.cls-11{stroke:url(#linear-gradient-12);}.cls-12{stroke:url(#linear-gradient-21);}.cls-13{stroke:url(#linear-gradient-11);}.cls-13,.cls-15,.cls-17,.cls-18{stroke-width:16px;}.cls-14{stroke:url(#linear-gradient-15);}.cls-15{stroke:url(#linear-gradient-6);}.cls-16{stroke:url(#linear-gradient-16);}.cls-4{fill:url(#linear-gradient-4);}.cls-28{fill:#fcee21;}.cls-17{stroke:url(#linear-gradient-7);}.cls-18{stroke:url(#linear-gradient-10);}.cls-19{stroke:url(#linear-gradient-17);}.cls-20{stroke:url(#linear-gradient-18);}.cls-21{stroke:url(#linear-gradient-19);}.cls-25{stroke:url(#linear-gradient-8);}.cls-25,.cls-26{fill:#2d2d2d;}.cls-26{stroke:url(#linear-gradient-9);}.cls-22{stroke:url(#linear-gradient-20);}.cls-23{stroke:#000;stroke-width:9px;}.cls-24{stroke:url(#linear-gradient-14);}.cls-5{fill:url(#linear-gradient);filter:url(#drop-shadow-1);}.cls-6{fill:url(#linear-gradient-2);}</style><linearGradient id="linear-gradient" x1="364.53" y1="807.2" x2="364.53" y2="14.5" gradientUnits="userSpaceOnUse"><stop offset="0" stop-color="gray"/><stop offset=".38" stop-color="#a6a6a6" stop-opacity=".7"/><stop offset="1" stop-color="#fff" stop-opacity="0"/></linearGradient><filter id="drop-shadow-1" x="278.5" y="6.5" width="187" height="823" filterUnits="userSpaceOnUse"><feOffset dx="7" dy="7"/><feGaussianBlur result="blur" stdDeviation="5"/><feFlood flood-color="#232323" flood-opacity=".66"/><feComposite in2="blur" operator="in"/><feComposite in="SourceGraphic"/></filter><linearGradient id="linear-gradient-2" x1="242.47" y1="906.31" x2="242.47" y2="436.09" xlink:href="#linear-gradient"/><linearGradient id="linear-gradient-3" x1="202.27" y1="908.35" x2="202.27" y2="7.5" xlink:href="#linear-gradient"/><linearGradient id="linear-gradient-4" x1="483.62" y1="906.31" x2="483.62" y2="455.8" xlink:href="#linear-gradient"/><linearGradient id="linear-gradient-5" x1="-26.33" y1="699.58" x2="-26.33" y2="-81.1" gradientTransform="translate(634.64 120.55) rotate(-157) scale(1 -1.2)" xlink:href="#linear-gradient"/><linearGradient id="linear-gradient-6" x1="49.5" y1="985.5" x2="49.5" y2="0" gradientUnits="userSpaceOnUse"><stop offset="0" stop-color="#fcee21"/><stop offset="1" stop-color="#999"/></linearGradient><linearGradient id="linear-gradient-7" x1="668.5" x2="668.5" xlink:href="#linear-gradient-6"/><linearGradient id="linear-gradient-8" x1=".5" y1="170.36" x2="107.85" y2="170.36" xlink:href="#linear-gradient-6"/><linearGradient id="linear-gradient-9" x1="207.5" y1="170.37" x2="314.85" y2="170.37" gradientTransform="translate(922.35) rotate(-180) scale(1 -1)" xlink:href="#linear-gradient-6"/><linearGradient id="linear-gradient-10" x1="708.5" x2="708.5" xlink:href="#linear-gradient-6"/><linearGradient id="linear-gradient-11" x1="8.5" x2="8.5" xlink:href="#linear-gradient-6"/><filter id="drop-shadow-2" x="73.5" y="-3.5" width="585" height="187" filterUnits="userSpaceOnUse"><feOffset dx="7" dy="7"/><feGaussianBlur result="blur-2" stdDeviation="5"/><feFlood flood-color="#7a7a7a" flood-opacity=".77"/><feComposite in2="blur-2" operator="in"/><feComposite in="SourceGraphic"/></filter><linearGradient id="linear-gradient-12" x1="355.12" y1="96.86" x2="361.88" y2="97.21" xlink:href="#linear-gradient-6"/><linearGradient id="linear-gradient-13" x1="372.07" y1="67.7" x2="379.06" y2="68.07" xlink:href="#linear-gradient-6"/><linearGradient id="linear-gradient-14" x1="78.5" y1="70.74" x2="387.92" y2="86.96" xlink:href="#linear-gradient-6"/><linearGradient id="linear-gradient-15" x1="341.62" y1="69.21" x2="342.71" y2="67.69" xlink:href="#linear-gradient-6"/><linearGradient id="linear-gradient-16" x1="173.37" y1="114.84" x2="289.94" y2="-47.59" xlink:href="#linear-gradient-6"/><linearGradient id="linear-gradient-17" x1="270.15" y1="96.54" x2="221.14" y2="-26.82" xlink:href="#linear-gradient-6"/><linearGradient id="linear-gradient-18" x1="297.48" y1="44.31" x2="169.55" y2="19.44" xlink:href="#linear-gradient-6"/><linearGradient id="linear-gradient-19" x1="322.51" y1="70.74" x2="632" y2="86.96" xlink:href="#linear-gradient-6"/><linearGradient id="linear-gradient-20" x1="417.37" y1="114.84" x2="533.94" y2="-47.59" xlink:href="#linear-gradient-6"/><linearGradient id="linear-gradient-21" x1="514.15" y1="96.54" x2="465.14" y2="-26.82" xlink:href="#linear-gradient-6"/><linearGradient id="linear-gradient-22" x1="541.48" y1="44.31" x2="413.55" y2="19.44" xlink:href="#linear-gradient-6"/></defs><g id="Layer_1-2"><rect class="cls-1" x="60.5" y="7.5" width="608" height="978"/><polygon class="cls-5" points="364.53 807.2 442.56 14.5 286.5 14.5 364.53 807.2"/><polygon class="cls-6" points="435.44 906.31 386.59 866.22 372.31 854.49 372.3 854.49 367.09 850.21 365 848.5 355.92 841.04 353.76 839.27 209.22 720.63 60.5 598.57 49.5 589.54 49.5 436.09 60.5 449.5 263.38 696.68 335.86 784.99 335.87 785 363.38 818.51 367.09 823.03 373.96 831.41 375.8 833.65 375.81 833.66 380.42 839.27 435.44 906.31"/><polygon class="cls-2" points="400.55 908.35 372.31 854.49 372.3 854.49 369.17 848.5 367.09 844.53 360.21 831.42 359.53 830.13 335.87 785 335.86 784.99 286.14 690.17 71.71 281.24 60.5 259.87 56.5 252.24 49.5 238.89 30.5 202.65 23.5 189.31 8.5 160.7 4 152.12 4 39.23 8.5 37.32 23.5 30.95 30.5 27.98 49.5 19.91 56.5 16.94 60.5 15.24 77.57 8 78.74 7.5 102.5 7.5 102.12 7.5 102.29 8 140.47 123.27 325.97 683.23 363.47 796.41 365.11 801.35 367.09 807.33 370.79 818.52 374.64 830.13 375.8 833.65 375.81 833.66 378.25 841.05 386.59 866.22 400.55 908.35"/><polygon class="cls-4" points="668.5 455.8 668.5 602.82 517.78 726.53 380.42 839.27 378.25 841.05 369.17 848.5 367.09 850.21 361.85 854.51 347.57 866.23 298.74 906.31 353.76 839.27 358.36 833.67 360.21 831.42 367.09 823.03 370.79 818.52 398.29 785.01 398.31 784.99 466.91 701.41 668.5 455.8"/><polygon class="cls-3" points="333.62 908.35 632.5 13.5 708.5 66.5 708.5 193.44 333.62 908.35"/><polyline class="cls-15" points="49.5 985.5 49.5 589.54 49.5 436.09 49.5 306.82 49.5 302.5 49.5 238.89 49.5 19.91 49.5 13 49.5 8 49.5 7.5"/><polyline class="cls-17" points="668.5 985.5 668.5 602.82 668.5 455.8 668.5 309.12 668.5 269.72 668.5 13.05 668.5 8 668.5 7.5"/><path class="cls-28" d="M358.5,681.5c-167.89,0-304,136.11-304,304h608c0-167.89-136.11-304-304-304Z"/><path class="cls-25" d="M71.71,281.24c-3.63,5.37-7.39,10.18-11.21,14.5-3.64,4.14-7.34,7.81-11,11.08-17.05,15.23-33.37,21.63-41,23.98-2.86.89-4.5,1.2-4.5,1.2V8h79c1.09,4.17,2.14,8.28,3.13,12.34,3.18,12.91,5.89,25.29,8.17,37.16,22.58,117.16,3.65,184.89-22.59,223.74Z"/><polygon class="cls-27" points="30.5 316.5 23.5 320.5 23.5 11.5 30.5 11.5 30.5 316.5"/><polygon class="cls-27" points="56.5 295.5 49.5 302.5 49.5 13 56.5 13 56.5 295.5"/><polygon class="cls-27" points="82.5 255.5 75.5 269 75.5 9.5 82.5 13.5 82.5 255.5"/><path class="cls-26" d="M711.35,332s-156-30-79-324h79v324Z"/><polygon class="cls-27" points="684.85 316.5 691.85 320.5 691.85 11.5 684.85 11.5 684.85 316.5"/><polygon class="cls-27" points="658.85 295.5 665.85 302.5 665.85 13 658.85 13 658.85 295.5"/><polygon class="cls-27" points="632.85 255.5 639.85 269 639.85 9.5 632.85 13.5 632.85 255.5"/><polyline class="cls-18" points="708.5 7.5 708.5 8 708.5 30.03 708.5 193.44 708.5 331.29 708.5 407.06 708.5 569.99 708.5 985.5"/><polyline class="cls-13" points="8.5 7.5 8.5 8 8.5 37.32 8.5 160.7 8.5 330.8 8.5 386.14 8.5 555.89 8.5 985.5"/><g class="cls-7"><path class="cls-11" d="M359,96.33c-.34.46-.68.92-1.02,1.37"/><path class="cls-8" d="M375.82,67.28c-.17.39-.35.79-.52,1.18"/><path class="cls-24" d="M357.98,97.7c-27.65,36.62-71.55,60.3-120.98,60.3-83.17,0-150.69-67.02-151.49-150h243.98c.01-.39.01-.78.01-1.17,0,.39,0,.78.01,1.17h58.98c0,.59-.01,1.18-.03,1.77"/><path class="cls-14" d="M342.47,67.92c-.21.36-.42.72-.64,1.08"/><path class="cls-16" d="M341.83,69c-21.24,35.53-60.09,59.33-104.5,59.33-66.75,0-120.94-53.75-121.64-120.33h213.8c.01-.39.01-.78.01-1.17,0,.39,0,.78.01,1.17h29.47c0,.52-.01,1.03-.03,1.55"/><path class="cls-19" d="M329.49,8c-.62,50.18-41.5,90.67-91.82,90.67S146.46,58.18,145.84,8h183.65Z"/><path class="cls-20" d="M299.99,8c-.53,33.78-28.08,61-61.99,61s-61.46-27.22-61.99-61h123.98Z"/><path class="cls-21" d="M632.49,8c-.8,82.98-68.32,150-151.49,150-50.04,0-94.42-24.27-122-61.67-6.49-8.79-12.05-18.31-16.53-28.41-8.15-18.34-12.76-38.6-12.96-59.92h302.98Z"/><path class="cls-22" d="M602.98,8c-.7,66.58-54.89,120.33-121.65,120.33-45.12,0-84.51-24.57-105.51-61.05-10.07-17.49-15.91-37.71-16.13-59.28h243.29Z"/><path class="cls-12" d="M573.49,8c-.62,50.18-41.5,90.67-91.82,90.67s-91.21-40.49-91.83-90.67h183.65Z"/><path class="cls-10" d="M543.99,8c-.53,33.78-28.08,61-61.99,61s-61.46-27.22-61.99-61h123.98Z"/></g><path class="cls-9" d="M329.51,8h-.02c.01-.39.01-.78.01-1.17,0,.39,0,.78.01,1.17Z"/><line class="cls-23" y1="8" x2="717" y2="8"/></g></svg>