<svg width="218" height="30" viewBox="0 0 218 30" fill="none" xmlns="http://www.w3.org/2000/svg">
<path d="M0.887969 29V0.999998H11.528C13.7946 0.999998 15.6746 1.38667 17.168 2.16C18.6613 2.93333 19.768 3.98667 20.488 5.32C21.2346 6.62667 21.608 8.12 21.608 9.8C21.608 11.3467 21.248 12.7867 20.528 14.12C19.8346 15.4267 18.7413 16.4933 17.248 17.32C15.7546 18.1467 13.848 18.56 11.528 18.56H6.48797V29H0.887969ZM6.48797 14.04H11.168C12.848 14.04 14.048 13.6533 14.768 12.88C15.5146 12.1067 15.888 11.08 15.888 9.8C15.888 8.46667 15.5146 7.42667 14.768 6.68C14.048 5.93333 12.848 5.56 11.168 5.56H6.48797V14.04ZM30.118 29.48C28.198 29.48 26.4646 29.04 24.918 28.16C23.3713 27.2533 22.1446 26 21.238 24.4C20.358 22.8 19.918 20.9867 19.918 18.96C19.918 16.88 20.358 15.04 21.238 13.44C22.1446 11.84 23.3713 10.6 24.918 9.72C26.4646 8.81333 28.2113 8.36 30.158 8.36C32.1046 8.36 33.8513 8.81333 35.398 9.72C36.9446 10.6 38.158 11.84 39.038 13.44C39.9446 15.0133 40.398 16.84 40.398 18.92C40.398 21 39.9446 22.84 39.038 24.44C38.1313 26.0133 36.9046 27.2533 35.358 28.16C33.838 29.04 32.0913 29.48 30.118 29.48ZM30.118 24.64C30.998 24.64 31.7713 24.4267 32.438 24C33.1046 23.5733 33.638 22.9333 34.038 22.08C34.4646 21.2267 34.678 20.1733 34.678 18.92C34.678 17.6667 34.478 16.6133 34.078 15.76C33.678 14.9067 33.1313 14.2667 32.438 13.84C31.7713 13.4133 31.0113 13.2 30.158 13.2C29.3313 13.2 28.5713 13.4133 27.878 13.84C27.1846 14.2667 26.638 14.9067 26.238 15.76C25.838 16.6133 25.638 17.6667 25.638 18.92C25.638 20.1733 25.838 21.2267 26.238 22.08C26.638 22.9333 27.1713 23.5733 27.838 24C28.5313 24.4267 29.2913 24.64 30.118 24.64ZM50.8502 29.48C48.8235 29.48 47.0235 29.0267 45.4502 28.12C43.8768 27.2133 42.6368 25.9733 41.7302 24.4C40.8502 22.8267 40.4102 21.0267 40.4102 19C40.4102 16.92 40.8502 15.0933 41.7302 13.52C42.6368 11.92 43.8768 10.6667 45.4502 9.76C47.0235 8.82667 48.8368 8.36 50.8902 8.36C53.4768 8.36 55.6502 9.05333 57.4102 10.44C59.1968 11.8 60.3302 13.68 60.8102 16.08H54.8502C54.6368 15.1733 54.1568 14.4667 53.4102 13.96C52.6902 13.4267 51.8235 13.16 50.8102 13.16C49.9035 13.16 49.0902 13.4 48.3702 13.88C47.6768 14.3333 47.1302 14.9867 46.7302 15.84C46.3302 16.6933 46.1302 17.72 46.1302 18.92C46.1302 19.8267 46.2368 20.64 46.4502 21.36C46.6902 22.0533 47.0102 22.6533 47.4102 23.16C47.8368 23.6667 48.3435 24.0533 48.9302 24.32C49.5168 24.5867 50.1435 24.72 50.8102 24.72C51.5035 24.72 52.1168 24.6133 52.6502 24.4C53.1835 24.16 53.6502 23.8267 54.0502 23.4C54.4502 22.9467 54.7168 22.4133 54.8502 21.8H60.8102C60.3302 24.1467 59.1968 26.0133 57.4102 27.4C55.6235 28.7867 53.4368 29.48 50.8502 29.48ZM74.7442 29L66.2242 17.96L73.8242 8.84H80.4642L70.4642 20.32V15.88L81.7042 29H74.7442ZM61.4642 29V0.199999H67.0642V29H61.4642ZM88.903 29.48C86.8763 29.48 85.0763 29.0533 83.503 28.2C81.9563 27.32 80.743 26.1067 79.863 24.56C78.983 22.9867 78.543 21.1733 78.543 19.12C78.543 17.04 78.9696 15.2 79.823 13.6C80.703 11.9733 81.9163 10.6933 83.463 9.76C85.0363 8.82667 86.863 8.36 88.943 8.36C90.943 8.36 92.6896 8.8 94.183 9.68C95.703 10.56 96.8763 11.7467 97.703 13.24C98.5563 14.7333 98.983 16.4533 98.983 18.4C98.983 18.6667 98.9696 18.96 98.943 19.28C98.943 19.6 98.9163 19.9467 98.863 20.32H82.543V16.92H93.303C93.223 15.6933 92.7696 14.72 91.943 14C91.143 13.2533 90.143 12.88 88.943 12.88C88.0363 12.88 87.2096 13.0933 86.463 13.52C85.7163 13.9467 85.1296 14.5733 84.703 15.4C84.2763 16.2267 84.063 17.28 84.063 18.56V19.72C84.063 20.76 84.263 21.68 84.663 22.48C85.063 23.2533 85.623 23.8533 86.343 24.28C87.063 24.7067 87.903 24.92 88.863 24.92C89.823 24.92 90.6096 24.72 91.223 24.32C91.863 23.92 92.343 23.4 92.663 22.76H98.383C98.0096 24.0133 97.3696 25.1467 96.463 26.16C95.583 27.1733 94.503 27.9867 93.223 28.6C91.943 29.1867 90.503 29.48 88.903 29.48ZM108.367 29C106.927 29 105.661 28.7733 104.567 28.32C103.501 27.8667 102.674 27.12 102.087 26.08C101.501 25.04 101.207 23.6267 101.207 21.84V13.52H97.7273V8.84H101.207L101.807 3.28H106.807V8.84H112.047V13.52H106.807V21.88C106.807 22.76 106.994 23.3733 107.367 23.72C107.767 24.0667 108.434 24.24 109.367 24.24H112.007V29H108.367ZM112.708 29V0.999998H123.348C125.615 0.999998 127.495 1.38667 128.988 2.16C130.482 2.93333 131.588 3.98667 132.308 5.32C133.055 6.62667 133.428 8.12 133.428 9.8C133.428 11.3467 133.068 12.7867 132.348 14.12C131.655 15.4267 130.562 16.4933 129.068 17.32C127.575 18.1467 125.668 18.56 123.348 18.56H118.308V29H112.708ZM118.308 14.04H122.988C124.668 14.04 125.868 13.6533 126.588 12.88C127.335 12.1067 127.708 11.08 127.708 9.8C127.708 8.46667 127.335 7.42667 126.588 6.68C125.868 5.93333 124.668 5.56 122.988 5.56H118.308V14.04ZM138.788 29.48C137.134 29.48 135.748 29.2133 134.628 28.68C133.534 28.12 132.721 27.3867 132.188 26.48C131.681 25.5467 131.428 24.52 131.428 23.4C131.428 22.2 131.734 21.1333 132.348 20.2C132.961 19.2667 133.908 18.5333 135.188 18C136.468 17.4667 138.068 17.2 139.988 17.2H144.948C144.948 16.24 144.814 15.4533 144.548 14.84C144.308 14.2 143.908 13.72 143.348 13.4C142.814 13.08 142.094 12.92 141.188 12.92C140.201 12.92 139.361 13.1333 138.668 13.56C138.001 13.9867 137.588 14.6267 137.428 15.48H131.988C132.148 14.04 132.628 12.8 133.428 11.76C134.228 10.6933 135.294 9.86667 136.628 9.28C137.988 8.66667 139.521 8.36 141.228 8.36C143.121 8.36 144.761 8.68 146.148 9.32C147.561 9.96 148.641 10.88 149.388 12.08C150.161 13.28 150.548 14.76 150.548 16.52V29H145.828L145.188 25.96C144.921 26.4933 144.574 26.9733 144.148 27.4C143.748 27.8267 143.281 28.2 142.748 28.52C142.214 28.8133 141.614 29.04 140.948 29.2C140.308 29.3867 139.588 29.48 138.788 29.48ZM140.148 25.16C140.814 25.16 141.414 25.0533 141.948 24.84C142.481 24.6 142.934 24.2667 143.308 23.84C143.681 23.4133 143.988 22.9333 144.228 22.4C144.468 21.84 144.628 21.24 144.708 20.6V20.56H140.668C139.894 20.56 139.254 20.6667 138.748 20.88C138.268 21.0667 137.908 21.3467 137.668 21.72C137.428 22.0667 137.308 22.4667 137.308 22.92C137.308 23.4 137.428 23.8133 137.668 24.16C137.908 24.5067 138.241 24.76 138.668 24.92C139.094 25.08 139.588 25.16 140.148 25.16ZM160.586 29C159.146 29 157.879 28.7733 156.786 28.32C155.719 27.8667 154.893 27.12 154.306 26.08C153.719 25.04 153.426 23.6267 153.426 21.84V13.52H149.946V8.84H153.426L154.026 3.28H159.026V8.84H164.266V13.52H159.026V21.88C159.026 22.76 159.213 23.3733 159.586 23.72C159.986 24.0667 160.653 24.24 161.586 24.24H164.226V29H160.586ZM164.847 29V8.84H169.807L170.327 12.56C170.834 11.68 171.447 10.9333 172.167 10.32C172.887 9.70667 173.727 9.22667 174.687 8.88C175.647 8.53333 176.687 8.36 177.807 8.36V14.28H175.927C175.127 14.28 174.38 14.3733 173.687 14.56C173.02 14.7467 172.434 15.0533 171.927 15.48C171.447 15.88 171.074 16.44 170.807 17.16C170.567 17.8533 170.447 18.7333 170.447 19.8V29H164.847ZM186.696 29.48C184.776 29.48 183.043 29.04 181.496 28.16C179.949 27.2533 178.723 26 177.816 24.4C176.936 22.8 176.496 20.9867 176.496 18.96C176.496 16.88 176.936 15.04 177.816 13.44C178.723 11.84 179.949 10.6 181.496 9.72C183.043 8.81333 184.789 8.36 186.736 8.36C188.683 8.36 190.429 8.81333 191.976 9.72C193.523 10.6 194.736 11.84 195.616 13.44C196.523 15.0133 196.976 16.84 196.976 18.92C196.976 21 196.523 22.84 195.616 24.44C194.709 26.0133 193.483 27.2533 191.936 28.16C190.416 29.04 188.669 29.48 186.696 29.48ZM186.696 24.64C187.576 24.64 188.349 24.4267 189.016 24C189.683 23.5733 190.216 22.9333 190.616 22.08C191.043 21.2267 191.256 20.1733 191.256 18.92C191.256 17.6667 191.056 16.6133 190.656 15.76C190.256 14.9067 189.709 14.2667 189.016 13.84C188.349 13.4133 187.589 13.2 186.736 13.2C185.909 13.2 185.149 13.4133 184.456 13.84C183.763 14.2667 183.216 14.9067 182.816 15.76C182.416 16.6133 182.216 17.6667 182.216 18.92C182.216 20.1733 182.416 21.2267 182.816 22.08C183.216 22.9333 183.749 23.5733 184.416 24C185.109 24.4267 185.869 24.64 186.696 24.64ZM197.628 29V8.84H202.548L202.948 12.12C203.562 11 204.428 10.0933 205.548 9.4C206.695 8.70667 208.068 8.36 209.668 8.36C211.322 8.36 212.722 8.72 213.868 9.44C215.015 10.1333 215.882 11.1467 216.468 12.48C217.082 13.8133 217.388 15.4533 217.388 17.4V29H211.828V17.92C211.828 16.3733 211.495 15.1867 210.828 14.36C210.188 13.5067 209.162 13.08 207.748 13.08C206.895 13.08 206.122 13.2933 205.428 13.72C204.735 14.12 204.188 14.7067 203.788 15.48C203.415 16.2267 203.228 17.1467 203.228 18.24V29H197.628Z" fill="black"/>
</svg>
